
	<svg xmlns="http://www.w3.org/2000/svg" xmlns:xlink="http://www.w3.org/1999/xlink" version="1.1" width="24" height="24" viewBox="0 0 100 100">


		<defs>
			<linearGradient id="Gradient_2" gradientUnits="userSpaceOnUse" x1="50" y1="62" x2="50" y2="0" spreadMethod="pad">
			<stop offset="0%" stop-color="#FFFFFF" stop-opacity="0.2"/>
			<stop offset="100%" stop-color="#FFFFFF" stop-opacity="0.7"/>
		</linearGradient><linearGradient id="Gradient_3" gradientUnits="userSpaceOnUse" x1="60" y1="100" x2="60" y2="0" spreadMethod="pad">
			<stop offset="0%" stop-color="#FFFFFF" stop-opacity="0"/>
			<stop offset="100%" stop-color="#FFFFFF" stop-opacity="0.4"/>
		</linearGradient><linearGradient id="Gradient_4" gradientUnits="userSpaceOnUse" x1="40" y1="100" x2="40" y2="0" spreadMethod="pad">
			<stop offset="0%" stop-color="#FFFFFF" stop-opacity="0"/>
			<stop offset="100%" stop-color="#FFFFFF" stop-opacity="0.4"/>
		</linearGradient><g id="background">
			<path fill="url(#background-gradient)" stroke="none" d=" M 100 13.35 Q 100 7.85 96.1 3.95 92.2 0 86.65 0 L 13.3 0 Q 7.8 0 3.9 3.95 0 7.85 0 13.35 L 0 86.7 Q 0 92.2 3.9 96.15 7.8 100 13.3 100 L 86.65 100 Q 92.2 100 96.1 96.15 100 92.2 100 86.7 L 100 13.35 Z"/>
		</g><mask id="mask">
			<path fill="#FFFFFF" stroke="none" d=" M 100 13.35 Q 100 7.85 96.1 3.95 92.2 0 86.65 0 L 13.3 0 Q 7.8 0 3.9 3.95 0 7.85 0 13.35 L 0 86.7 Q 0 92.2 3.9 96.15 7.8 100 13.3 100 L 86.65 100 Q 92.2 100 96.1 96.15 100 92.2 100 86.7 L 100 13.35 Z"/>
		</mask><g id="gloss-top">
			<path fill="url(#Gradient_2)" stroke="none" d=" M 100 42.9 L 100 13.35 Q 100 7.8 96.15 3.9 92.25 0 86.7 0 L 13.35 0 Q 7.85 0 3.9 3.9 0 7.8 0 13.35 L 0 42.9 Q 10.3 51.8 22.9 56.65 35.95 61.65 50 61.65 64.05 61.65 77.1 56.65 89.75 51.8 100 42.9 Z"/>
		</g><g id="gloss-right">
			<path fill="url(#Gradient_3)" stroke="none" d=" M 96.1 3.9 Q 92.2 0 86.7 0 L 20.85 0 75.8 100 86.7 100 Q 92.2 100 96.1 96.1 100 92.2 100 86.65 L 100 13.35 Q 100 7.8 96.1 3.9 Z"/>
		</g><g id="gloss-left">
			<path fill="url(#Gradient_4)" stroke="none" d=" M 3.9 3.95 Q 0 7.85 0 13.35 L 0 86.7 Q 0 92.2 3.9 96.15 7.8 100 13.3 100 L 24.2 100 79.15 0 13.3 0 Q 7.8 0 3.9 3.95 Z"/>
		</g>
			
	<linearGradient id="background-gradient" x1="0" y1="0" y2="1" x2="0" >
		<stop stop-color="#6c757d" offset="0%"/>
		<stop stop-color="#6c757d" offset="100%"/>
	</linearGradient>

			
			
			<g transform="scale(3.031313263417843) translate(0.597000002861023 2.908501625061035)" id="picture"><path d="M32.392 1.067l-.821 6.044c-3.579-.552-7.14-1.062-10.72-.766-3.277.271-6.453.89-8.772 3.402-4.258 4.611-1.941 10.967 4.491 12.101 4.004.707 8.057.326 12.073-.224-.155 3.11-.163 2.636-.303 5.677-.03.665.122.404-4.587.882-4.995.25-9.986.31-14.773-1.463C4.444 25.041.872 22.37.148 17.436c-.745-5.078 1.385-9.178 5.464-12.34 6.121-4.747 16.831-6.417 26.78-4.029z"/></g>
			
	<linearGradient id="picture-gradient" x1="0" y1="0" y2="1" x2="0" >
		<stop stop-color="#ffffff" offset="0%"/>
		<stop stop-color="#e5eff9" offset="100%"/>
	</linearGradient>

		</defs>

		

			<use xlink:href="#background" fill="url(#background-gradient)" />

		

			<g mask="url(#mask)">
				<g transform="
				        translate(
                                50 50
)
                            translate(0 0)  scale(0.5)  
                            translate(
                                -50 -50
)">
						<use xlink:href="#picture" fill="url(#picture-gradient)"  />
				</g>
			</g>

		



	</svg>
